<?xml version="1.0" encoding="UTF-8" standalone="no"?>
<!DOCTYPE svg PUBLIC "-//W3C//DTD SVG 1.1//EN" "http://www.w3.org/Graphics/SVG/1.1/DTD/svg11.dtd">
<svg width="100%" height="100%" viewBox="0 0 4096 4096" version="1.1" xmlns="http://www.w3.org/2000/svg" xmlns:xlink="http://www.w3.org/1999/xlink" xml:space="preserve" xmlns:serif="http://www.serif.com/" style="fill-rule:evenodd;clip-rule:evenodd;stroke-linecap:round;stroke-linejoin:round;stroke-miterlimit:1.5;">
    <g transform="matrix(1,0,0,1,-1.81994,-4395.83)">
        <g id="Logo-05" serif:id="Logo 05" transform="matrix(1,0,0,1,1.81994,4395.83)">
            <rect x="0" y="0" width="4096" height="4096" style="fill:none;"/>
            <g transform="matrix(0.725159,-0.226381,0.226381,0.725159,590.339,1017.02)">
                <g>
                    <g transform="matrix(3.66301,0,0,3.66301,-5435.34,-5607.97)">
                        <path d="M1565.85,1662.16L1713.81,1662.16L1857.12,2288.97L2418.69,2288.97" style="fill:none;stroke:white;stroke-width:67.08px;"/>
                    </g>
                    <g transform="matrix(3.66301,0,0,3.66301,-5435.34,-5607.97)">
                        <path d="M1741.78,1783.33L2520.05,1783.33L2453.64,2106.05L1831.49,2177.12" style="fill:none;stroke:white;stroke-width:67.08px;"/>
                    </g>
                </g>
                <g>
                    <g transform="matrix(3.98432,0,0,3.98432,-6036.17,-6358.66)">
                        <circle cx="1936.35" cy="2436.94" r="66.41" style="fill:white;"/>
                    </g>
                    <g transform="matrix(3.98432,0,0,3.98432,-4615.03,-6358.66)">
                        <circle cx="1936.35" cy="2436.94" r="66.41" style="fill:white;"/>
                    </g>
                </g>
            </g>
            <g transform="matrix(0.544397,0,0,0.606555,-485.48,835.925)">
                <g transform="matrix(1,0,0,1,-4362.67,-106.667)">
                    <path d="M5801.93,1628.54L7682.82,1645.61L7393.05,1355.84" style="fill:none;stroke:white;stroke-width:186.67px;"/>
                </g>
                <g transform="matrix(1,0,0,1,-4362.67,-106.667)">
                    <path d="M7682.82,1645.61L7405.48,1922.95" style="fill:none;stroke:white;stroke-width:186.67px;"/>
                </g>
            </g>
            <g transform="matrix(0.544397,0,0,0.606555,-242.845,1281.55)">
                <g transform="matrix(1,0,0,1,-4362.67,-106.667)">
                    <path d="M5801.93,1628.54L7682.82,1645.61L7393.05,1355.84" style="fill:none;stroke:white;stroke-width:186.67px;"/>
                </g>
                <g transform="matrix(1,0,0,1,-4362.67,-106.667)">
                    <path d="M7682.82,1645.61L7405.48,1922.95" style="fill:none;stroke:white;stroke-width:186.67px;"/>
                </g>
            </g>
            <g transform="matrix(0.544397,0,0,0.606555,26.4953,1735.9)">
                <g transform="matrix(1,0,0,1,-4362.67,-106.667)">
                    <path d="M5801.93,1628.54L7682.82,1645.61L7393.05,1355.84" style="fill:none;stroke:white;stroke-width:186.67px;"/>
                </g>
                <g transform="matrix(1,0,0,1,-4362.67,-106.667)">
                    <path d="M7682.82,1645.61L7405.48,1922.95" style="fill:none;stroke:white;stroke-width:186.67px;"/>
                </g>
            </g>
        </g>
    </g>
</svg>
